<?xml version="1.0" encoding="iso-8859-1"?>
<!-- Generator: Adobe Illustrator 16.0.0, SVG Export Plug-In . SVG Version: 6.00 Build 0)  -->
<!DOCTYPE svg PUBLIC "-//W3C//DTD SVG 1.1//EN" "http://www.w3.org/Graphics/SVG/1.1/DTD/svg11.dtd">
<svg version="1.1" id="Layer_1" xmlns="http://www.w3.org/2000/svg" xmlns:xlink="http://www.w3.org/1999/xlink" x="0px" y="0px"
	 width="36px" height="36px" viewBox="0 0 36 36" style="enable-background:new 0 0 36 36;" xml:space="preserve">
<g>
	<circle style="fill:#010101;" cx="13.76" cy="29.978" r="2.301"/>
	<circle style="fill:#010101;" cx="21.268" cy="29.978" r="2.301"/>
	<path style="fill:#010101;" d="M34.443,6.022c-0.271-0.672-1.035-0.998-1.711-0.725l-4.811,1.944
		c-0.111,0.045-0.207,0.107-0.299,0.176c-0.34,0.172-0.607,0.482-0.693,0.884l-0.689,3.467c-0.098-0.012-0.191-0.031-0.289-0.031
		H8.408c-1.369,0-2.482,1.179-2.482,2.627v0.273l3.199,9.4c0.414,1.409,1.297,2.313,2.564,2.313h12.273
		c1.188,0,2.176-0.885,2.422-2.061c0.041-0.089,0.08-0.182,0.102-0.282l3.299-14.686l3.932-1.59
		C34.391,7.46,34.715,6.694,34.443,6.022z M24.912,18.448l-1.1,5.194v0.082H12.033l-0.199-0.273l-3.162-9.085h17.051L24.912,18.448z
		"/>
	<path style="fill:#010101;" d="M16.246,21.904c0.199,0.105,0.445,0.03,0.551-0.168c0.105-0.199,0.029-0.445-0.17-0.551
		c-0.785-0.418-1.275-1.232-1.275-2.123c0-1.269,0.988-2.31,2.234-2.396v0.76l0.016,0.015c0.059,0.06,0.156,0.06,0.215,0
		l1.033-1.032c0.059-0.06,0.059-0.156,0-0.216l-1.033-1.032c-0.059-0.06-0.156-0.06-0.215,0l-0.016,0.015v0.673
		c-1.695,0.088-3.049,1.496-3.049,3.213C14.537,20.254,15.193,21.343,16.246,21.904z"/>
	<path style="fill:#010101;" d="M19.449,16.767c0.789,0.418,1.277,1.232,1.277,2.123c0,1.268-0.988,2.31-2.234,2.396v-0.76
		l-0.014-0.015c-0.061-0.06-0.158-0.06-0.219,0l-1.031,1.032c-0.059,0.06-0.059,0.156,0,0.216l1.031,1.032
		c0.061,0.06,0.158,0.06,0.219,0l0.014-0.015v-0.673c1.695-0.088,3.049-1.496,3.049-3.213c0-1.192-0.654-2.281-1.707-2.842
		c-0.199-0.106-0.447-0.03-0.553,0.168C19.178,16.414,19.252,16.661,19.449,16.767z"/>
</g>
</svg>
