<?xml version="1.0" encoding="iso-8859-1"?>
<!-- Generator: Adobe Illustrator 16.0.0, SVG Export Plug-In . SVG Version: 6.00 Build 0)  -->
<!DOCTYPE svg PUBLIC "-//W3C//DTD SVG 1.1//EN" "http://www.w3.org/Graphics/SVG/1.1/DTD/svg11.dtd">
<svg version="1.1" id="Layer_1" xmlns="http://www.w3.org/2000/svg" xmlns:xlink="http://www.w3.org/1999/xlink" x="0px" y="0px"
	 width="36px" height="36px" viewBox="0 0 36 36" style="enable-background:new 0 0 36 36;" xml:space="preserve">
<path style="fill:#010101;" d="M32.636,25.553c-0.713,0.515-1.498,0.857-2.355,1.029c-0.858,0.172-1.742,0.257-2.654,0.257
	c-0.91,0-1.758-0.135-2.543-0.406s-1.473-0.709-2.06-1.316c-0.587-0.607-1.05-1.396-1.386-2.366
	c-0.337-0.97-0.505-2.162-0.505-3.573c0-0.133,0.007-0.245,0.021-0.336c0.013-0.093,0.085-0.139,0.217-0.139h11.563
	c0.409,0,0.613-0.284,0.613-0.851c0-1.122-0.182-2.158-0.544-3.109c-0.362-0.95-0.874-1.771-1.534-2.465
	c-0.66-0.692-1.452-1.234-2.376-1.624c-0.924-0.389-1.953-0.583-3.089-0.583c-1.346,0-2.58,0.254-3.702,0.762
	c-1.122,0.508-2.082,1.198-2.88,2.069c-0.799,0.871-1.423,1.894-1.871,3.068c-0.135,0.353-0.242,0.716-0.338,1.084
	c-0.443-0.654-0.986-1.313-1.651-1.885c-0.083-0.078-0.173-0.16-0.27-0.246c-0.627-0.561-1.501-1.273-2.439-1.89
	c-0.469-0.312-0.958-0.59-1.427-0.833c-0.239-0.11-0.471-0.217-0.689-0.317c-0.229-0.085-0.441-0.166-0.641-0.24
	c-0.204-0.056-0.391-0.108-0.557-0.154c-0.164-0.054-0.314-0.062-0.438-0.086c-0.244-0.039-0.385-0.063-0.385-0.063
	s0.142,0.012,0.389,0.032c0.124,0.014,0.278,0.011,0.447,0.052c0.172,0.033,0.363,0.07,0.574,0.111
	c0.206,0.06,0.43,0.124,0.666,0.193c0.23,0.084,0.475,0.173,0.729,0.267c0.493,0.209,1.014,0.453,1.516,0.732
	c1.006,0.555,1.953,1.208,2.64,1.731c0.139,0.106,0.265,0.204,0.381,0.297c-0.011-0.107-0.026-0.224-0.056-0.344
	c-0.051-0.256-0.111-0.574-0.221-0.898c-0.105-0.329-0.246-0.672-0.42-1.033c-0.357-0.703-0.859-1.443-1.525-2.075
	c-0.325-0.326-0.698-0.617-1.096-0.882c-0.391-0.271-0.835-0.489-1.275-0.695c-0.455-0.188-0.929-0.343-1.404-0.459
	C9.567,8.27,9.087,8.194,8.596,8.186C8.099,8.188,7.635,8.194,7.17,8.288c-0.464,0.094-0.89,0.201-1.282,0.354
	c-0.398,0.171-0.75,0.354-1.049,0.54C4.542,9.359,4.288,9.615,4.093,9.788c-0.197,0.17-0.338,0.363-0.434,0.469
	c-0.095,0.115-0.142,0.188-0.142,0.188s0.058,0.063,0.168,0.181c0.106,0.101,0.259,0.285,0.438,0.445
	c0.168,0.166,0.373,0.369,0.607,0.603c0.225,0.228,0.463,0.459,0.706,0.681c0.246,0.229,0.505,0.482,0.77,0.695
	c0.264,0.216,0.544,0.461,0.83,0.649c0.575,0.415,1.204,0.767,1.882,1.054c0.339,0.157,0.692,0.263,1.051,0.384
	c0.359,0.114,0.731,0.193,1.105,0.27c0.377,0.064,0.754,0.122,1.134,0.148c0.382,0.025,0.751,0.047,1.116,0.04
	c0.363-0.001,0.715-0.021,1.038-0.049c0.222-0.015,0.432-0.044,0.628-0.073c0.871,0.708,1.54,1.585,2.041,2.416
	c-0.102,0.602-0.156,1.222-0.156,1.862c0,1.386,0.195,2.669,0.584,3.851c0.39,1.182,0.983,2.204,1.782,3.068
	c0.798,0.865,1.798,1.541,2.999,2.03c1.201,0.488,2.613,0.732,4.237,0.732c1.597,0,2.931-0.218,3.999-0.653
	c1.069-0.449,2.046-1.228,2.93-2.336c0.186-0.198,0.152-0.443-0.099-0.733C33.072,25.408,32.847,25.355,32.636,25.553z
	 M21.292,16.188c0.079-0.62,0.218-1.21,0.416-1.771s0.476-1.056,0.831-1.485c0.357-0.429,0.795-0.772,1.317-1.03
	c0.521-0.257,1.151-0.385,1.89-0.385c0.582,0,1.105,0.122,1.574,0.366c0.469,0.245,0.865,0.571,1.188,0.98s0.574,0.875,0.753,1.396
	c0.178,0.521,0.267,1.065,0.267,1.633c0,0.197-0.003,0.379-0.01,0.544c-0.007,0.165-0.03,0.31-0.069,0.436
	c-0.039,0.125-0.109,0.224-0.208,0.297s-0.247,0.109-0.445,0.109h-7.385c-0.105,0-0.165-0.103-0.179-0.307
	C21.219,16.766,21.239,16.505,21.292,16.188z"/>
</svg>
