<?xml version="1.0" encoding="iso-8859-1"?>
<!-- Generator: Adobe Illustrator 16.0.0, SVG Export Plug-In . SVG Version: 6.00 Build 0)  -->
<!DOCTYPE svg PUBLIC "-//W3C//DTD SVG 1.1//EN" "http://www.w3.org/Graphics/SVG/1.1/DTD/svg11.dtd">
<svg version="1.1" id="Layer_1" xmlns="http://www.w3.org/2000/svg" xmlns:xlink="http://www.w3.org/1999/xlink" x="0px" y="0px"
	 width="36px" height="36px" viewBox="0 0 36 36" style="enable-background:new 0 0 36 36;" xml:space="preserve">
<g>
	<circle style="fill:#010101;" cx="10.376" cy="26.626" r="1.984"/>
	<circle style="fill:#010101;" cx="29.23" cy="26.626" r="1.984"/>
	<path style="fill:#010101;" d="M13.419,11.353v14.319h13.526c0.358-0.958,1.278-1.641,2.359-1.641c1.079,0,2.001,0.684,2.358,1.641
		h2.162V11.353H13.419z M27.892,20.366c-1.533,2.111-4.005,1.442-5.338,0.595c0.232-0.346,0.669-0.75,0.96-1.178
		c0.185,0.009,0.917,0.093,1.566,0.03c0.19-0.021,0.382-0.045,0.559-0.083c0.177-0.038,0.341-0.082,0.474-0.141
		c0.066-0.027,0.127-0.053,0.176-0.087c0.049-0.032,0.096-0.053,0.124-0.085c0.06-0.058,0.095-0.091,0.095-0.091
		s-0.037,0.029-0.104,0.079c-0.031,0.029-0.08,0.042-0.131,0.069c-0.049,0.027-0.111,0.045-0.18,0.063
		c-0.133,0.042-0.297,0.065-0.471,0.081c-0.174,0.016-0.361,0.019-0.549,0.016c-0.375-0.008-0.749-0.047-1.027-0.084
		c-0.089-0.011-0.233-0.039-0.299-0.049c0.252-0.371,0.583-0.737,0.84-1.112c0.154,0.009,0.727,0.034,1.3-0.021
		c0.167-0.018,0.333-0.039,0.487-0.073c0.153-0.033,0.296-0.071,0.412-0.123c0.058-0.024,0.111-0.047,0.153-0.077
		c0.043-0.028,0.084-0.046,0.108-0.075c0.053-0.05,0.082-0.079,0.082-0.079s-0.033,0.025-0.091,0.068
		c-0.025,0.025-0.069,0.038-0.112,0.06c-0.045,0.024-0.099,0.04-0.158,0.056c-0.115,0.036-0.258,0.057-0.41,0.07
		c-0.152,0.014-0.314,0.016-0.479,0.014c-0.326-0.007-0.652-0.042-0.896-0.074c-0.079-0.011-0.146-0.021-0.204-0.029
		c0.277-0.407,0.547-0.798,0.787-1.151l-0.004,0.029c0,0,0.522,0.035,1.041-0.016c0.129-0.013,0.259-0.031,0.378-0.056
		s0.229-0.055,0.319-0.095c0.045-0.019,0.087-0.036,0.119-0.059c0.033-0.022,0.064-0.036,0.084-0.058
		c0.041-0.04,0.064-0.061,0.064-0.061s-0.025,0.019-0.07,0.053c-0.021,0.019-0.055,0.029-0.088,0.046
		c-0.034,0.019-0.076,0.031-0.122,0.043c-0.091,0.027-0.2,0.044-0.318,0.055c-0.118,0.011-0.244,0.013-0.372,0.011
		c-0.253-0.006-0.506-0.032-0.693-0.058c-0.084-0.011-0.152-0.021-0.205-0.03c0.889-1.302,1.313-1.942,0.227-0.448
		c-0.106,0.147-0.336,0.452-0.336,0.452c-0.002,0.003-0.004,0.006-0.006,0.008c-0.031-0.035-0.086-0.097-0.156-0.184
		c-0.109-0.133-0.25-0.315-0.376-0.507c-0.062-0.097-0.12-0.196-0.169-0.292c-0.047-0.096-0.088-0.188-0.109-0.271
		c-0.012-0.041-0.022-0.08-0.024-0.114c-0.003-0.035-0.011-0.065-0.006-0.089c0.005-0.05,0.007-0.08,0.007-0.08
		s-0.006,0.028-0.017,0.078c-0.009,0.025-0.003,0.056-0.005,0.093c-0.002,0.036,0.004,0.076,0.012,0.12
		c0.012,0.087,0.041,0.187,0.078,0.292c0.037,0.104,0.086,0.211,0.137,0.318c0.209,0.423,0.485,0.808,0.485,0.808l0.03-0.025
		c-0.333,0.438-0.666,0.858-0.996,1.257c-0.039-0.044-0.107-0.122-0.196-0.23c-0.137-0.166-0.313-0.394-0.47-0.634
		c-0.076-0.121-0.15-0.245-0.211-0.364c-0.059-0.12-0.109-0.236-0.137-0.339c-0.015-0.052-0.027-0.1-0.03-0.143
		c-0.003-0.043-0.015-0.081-0.008-0.112c0.006-0.063,0.009-0.1,0.009-0.1s-0.008,0.036-0.021,0.098
		c-0.011,0.032-0.005,0.071-0.006,0.116c-0.003,0.046,0.005,0.096,0.014,0.151c0.015,0.109,0.052,0.234,0.099,0.363
		c0.047,0.131,0.107,0.265,0.172,0.398c0.26,0.529,0.605,1.011,0.605,1.011l0.007-0.006c-0.309,0.369-0.612,0.716-0.906,1.044
		c-0.049-0.055-0.142-0.161-0.264-0.31c-0.179-0.217-0.409-0.514-0.613-0.829c-0.101-0.158-0.196-0.319-0.275-0.476
		c-0.078-0.156-0.144-0.308-0.179-0.443c-0.02-0.067-0.037-0.13-0.041-0.187c-0.004-0.056-0.018-0.106-0.01-0.146
		c0.008-0.083,0.012-0.13,0.012-0.13s-0.01,0.046-0.027,0.128c-0.013,0.041-0.006,0.093-0.008,0.151
		c-0.004,0.06,0.007,0.124,0.02,0.196c0.019,0.144,0.068,0.306,0.129,0.476s0.14,0.346,0.223,0.519
		c0.338,0.686,0.785,1.31,0.791,1.319c-0.293,0.32-3.143,3.363-3.143,3.363l-1.162-0.518c0.199-0.152,0.137,0.535,3.006-2.143
		c-0.945-1.048-1.669-2.946-0.392-4.704c1.655-2.281,6.265-2.472,6.374-3.373C27.949,11.423,29.549,18.085,27.892,20.366z"/>
	<path style="fill:#010101;" d="M3.753,19.586v3.938h2.416h0.896l1.029,0.358v0.089h4.341v-8.322H6.169L3.753,19.586z
		 M11.269,16.356v2.932H5.213l1.696-2.932H11.269z"/>
	<polygon style="fill:#010101;" points="3.434,23.792 3.434,25.416 8.091,25.416 8.094,25.409 8.094,24.24 6.877,23.792 	"/>
</g>
</svg>
